<svg width="24" height="40" viewBox="0 0 24 40" fill="none" xmlns="http://www.w3.org/2000/svg">
<rect width="24" height="40" fill="#E5E5E5"/>
<path d="M-200 -198C-200 -199.105 -199.105 -200 -198 -200H3327C3328.1 -200 3329 -199.105 3329 -198V1192C3329 1193.1 3328.1 1194 3327 1194H-198C-199.105 1194 -200 1193.1 -200 1192V-198Z" fill="#B8BABC"/>
<g clip-path="url(#clip0_74090_475)">
<rect width="1920" height="1080" transform="translate(-100 -100)" fill="white"/>
<rect x="-100" y="-100" width="680" height="1080" fill="url(#paint0_linear_74090_475)"/>
<mask id="path-4-inside-1_74090_475" fill="white">
<path d="M19 40H5L0 35V21L5 16H19L24 21V35L19 40Z"/>
<path d="M19 14H5L0 8L6 9L5 2L10 7L12 0L14 7L19 2L18 9L24 8L19 14Z"/>
</mask>
<path d="M-0.0303301 22.0303L6.46967 28.5303L7.53033 27.4697L1.03033 20.9697L-0.0303301 22.0303ZM6.46967 28.5303L11.4697 33.5303L12.5303 32.4697L7.53033 27.4697L6.46967 28.5303ZM11.4697 33.5303L17.9697 40.0303L19.0303 38.9697L12.5303 32.4697L11.4697 33.5303ZM4.96967 17.0303L11.4697 23.5303L12.5303 22.4697L6.03033 15.9697L4.96967 17.0303ZM11.4697 23.5303L16.4697 28.5303L17.5303 27.4697L12.5303 22.4697L11.4697 23.5303ZM16.4697 28.5303L22.9697 35.0303L24.0303 33.9697L17.5303 27.4697L16.4697 28.5303ZM17.9697 15.9697L11.4697 22.4697L12.5303 23.5303L19.0303 17.0303L17.9697 15.9697ZM11.4697 22.4697L6.46967 27.4697L7.53033 28.5303L12.5303 23.5303L11.4697 22.4697ZM6.46967 27.4697L-0.0303301 33.9697L1.03033 35.0303L7.53033 28.5303L6.46967 27.4697ZM22.9697 20.9697L16.4697 27.4697L17.5303 28.5303L24.0303 22.0303L22.9697 20.9697ZM16.4697 27.4697L11.4697 32.4697L12.5303 33.5303L17.5303 28.5303L16.4697 27.4697ZM11.4697 32.4697L4.96967 38.9697L6.03033 40.0303L12.5303 33.5303L11.4697 32.4697ZM5 40L3.93934 41.0607L4.37868 41.5H5V40ZM19 40V41.5H19.6213L20.0607 41.0607L19 40ZM24 35L25.0607 36.0607L25.5 35.6213V35H24ZM24 21H25.5V20.3787L25.0607 19.9393L24 21ZM19 16L20.0607 14.9393L19.6213 14.5H19V16ZM5 16V14.5H4.37868L3.93934 14.9393L5 16ZM0 21L-1.06066 19.9393L-1.5 20.3787V21H0ZM0 35H-1.5V35.6213L-1.06066 36.0607L0 35ZM5 14L3.84767 14.9603L4.29744 15.5H5V14ZM19 14V15.5H19.7026L20.1523 14.9603L19 14ZM24 8L25.1523 8.96028L27.7391 5.85612L23.7534 6.52041L24 8ZM18 9L16.5151 8.78787L16.2253 10.8165L18.2466 10.4796L18 9ZM19 2L20.4849 2.21213L21.1213 -2.24264L17.9393 0.93934L19 2ZM14 7L12.5577 7.41208L13.2581 9.86327L15.0607 8.06066L14 7ZM12 0L13.4423 -0.412082L12 -5.46008L10.5577 -0.412082L12 0ZM10 7L8.93934 8.06066L10.7419 9.86327L11.4423 7.41208L10 7ZM5 2L6.06066 0.93934L2.87868 -2.24264L3.51508 2.21213L5 2ZM6 9L5.7534 10.4796L7.77473 10.8165L7.48492 8.78787L6 9ZM0 8L0.246598 6.52041L-3.73913 5.85612L-1.15233 8.96028L0 8ZM5 41.5H19V38.5H5V41.5ZM20.0607 41.0607L25.0607 36.0607L22.9393 33.9393L17.9393 38.9393L20.0607 41.0607ZM25.5 35V21H22.5V35H25.5ZM25.0607 19.9393L20.0607 14.9393L17.9393 17.0607L22.9393 22.0607L25.0607 19.9393ZM19 14.5H5V17.5H19V14.5ZM3.93934 14.9393L-1.06066 19.9393L1.06066 22.0607L6.06066 17.0607L3.93934 14.9393ZM-1.5 21V35H1.5V21H-1.5ZM-1.06066 36.0607L3.93934 41.0607L6.06066 38.9393L1.06066 33.9393L-1.06066 36.0607ZM5 15.5H19V12.5H5V15.5ZM20.1523 14.9603L25.1523 8.96028L22.8477 7.03972L17.8477 13.0397L20.1523 14.9603ZM23.7534 6.52041L17.7534 7.52041L18.2466 10.4796L24.2466 9.47959L23.7534 6.52041ZM19.4849 9.21213L20.4849 2.21213L17.5151 1.78787L16.5151 8.78787L19.4849 9.21213ZM17.9393 0.93934L12.9393 5.93934L15.0607 8.06066L20.0607 3.06066L17.9393 0.93934ZM15.4423 6.58792L13.4423 -0.412082L10.5577 0.412082L12.5577 7.41208L15.4423 6.58792ZM10.5577 -0.412082L8.55771 6.58792L11.4423 7.41208L13.4423 0.412082L10.5577 -0.412082ZM11.0607 5.93934L6.06066 0.93934L3.93934 3.06066L8.93934 8.06066L11.0607 5.93934ZM3.51508 2.21213L4.51508 9.21213L7.48492 8.78787L6.48492 1.78787L3.51508 2.21213ZM6.2466 7.52041L0.246598 6.52041L-0.246598 9.47959L5.7534 10.4796L6.2466 7.52041ZM-1.15233 8.96028L3.84767 14.9603L6.15233 13.0397L1.15233 7.03972L-1.15233 8.96028Z" fill="#4066A5" mask="url(#path-4-inside-1_74090_475)"/>
</g>
<path d="M-198 -199H3327V-201H-198V-199ZM3328 -198V1192H3330V-198H3328ZM3327 1193H-198V1195H3327V1193ZM-199 1192V-198H-201V1192H-199ZM-198 1193C-198.552 1193 -199 1192.55 -199 1192H-201C-201 1193.66 -199.657 1195 -198 1195V1193ZM3328 1192C3328 1192.55 3327.55 1193 3327 1193V1195C3328.66 1195 3330 1193.66 3330 1192H3328ZM3327 -199C3327.55 -199 3328 -198.552 3328 -198H3330C3330 -199.657 3328.66 -201 3327 -201V-199ZM-198 -201C-199.657 -201 -201 -199.657 -201 -198H-199C-199 -198.552 -198.552 -199 -198 -199V-201Z" fill="white" fill-opacity="0.1"/>
<defs>
<linearGradient id="paint0_linear_74090_475" x1="240" y1="-100" x2="240" y2="980" gradientUnits="userSpaceOnUse">
<stop stop-color="white"/>
<stop offset="1" stop-color="#F2F5FA"/>
</linearGradient>
<clipPath id="clip0_74090_475">
<rect width="1920" height="1080" fill="white" transform="translate(-100 -100)"/>
</clipPath>
</defs>
</svg>
